<?xml version="1.0" encoding="utf-8"?><svg viewBox="0 0 800 800" xmlns="http://www.w3.org/2000/svg" xmlns:xlink="http://www.w3.org/1999/xlink"><style>:root>svg{display:none}:root>svg:target{display:block}</style><svg viewBox="0 0 24 24" id="codewars" xmlns="http://www.w3.org/2000/svg"><path d="M.76 12.2l-.08-.04c-.18-.1-.32-.25-.42-.44-.14-.26-.2-.5-.2-.75l.02-.13c0-.2.05-.38.14-.55l.08-.15c.04-.08.1-.15.15-.22.06-.07.07-.16.05-.24l-.05-.16c-.06-.2-.1-.4-.1-.6L.32 8.8c0-.22.06-.44.2-.6l.1-.13c.07-.1.18-.16.3-.2.1-.03.17-.13.18-.25l.02-.34c0-.27.13-.52.33-.7l.24-.18c.05-.05.1-.1.14-.18.05-.06.06-.14.05-.2-.02-.1 0-.13.05-.14.16.06.26.04.33-.04l.13-.17.36-.4a.4.4 0 00.08-.42l-.12-.26c-.02-.06 0-.13.05-.15.13 0 .22.05.26.13l.04.07c.06.12.2.18.3.13.22-.08.4-.1.57-.1h.32c.22 0 .4-.15.44-.38.04-.28.14-.5.28-.65.15-.17.32-.3.52-.4.26-.14.42-.34.47-.6.07-.32.24-.55.47-.7l.76-.43.22-.13c.13-.08.25-.18.35-.3l.2-.24c.1-.1.2-.17.32-.2.1-.03.24-.05.36-.04l.4.03c.2 0 .36.05.52.12l.1.05c.1.04.2.02.25-.05L10 .7l.43-.45c.1-.1.22-.14.35-.12.13.02.26.07.38.13.18.1.33.14.5.14h.1c.22 0 .44.03.66.08l.15.04c.15.04.3-.02.4-.14.03-.05.1-.06.14-.02.03.02.04.04.05.07.02.2.14.35.3.4l.16.05a.8.8 0 01.42.3c.1.15.22.3.36.4l.1.1c.1.1.24.14.38.13h.59c.24 0 .47.04.7.14.22.1.45.12.66.04.22-.07.45-.1.68-.07l.43.07c.2.02.4.12.52.27l.05.05c.1.1.2.23.3.37.06.13.2.2.34.2h.62c.15 0 .3.03.42.1.13.1.24.2.34.3l.1.13c.12.14.18.33.17.53 0 .16.12.3.28.3l.2.02c.14 0 .26.1.33.23l.1.2.26.58c.04.1.05.2.04.28 0 .1.03.18.1.22l.1.07c.13.1.2.25.18.42l-.07.47-.02.2c-.02.1.03.23.12.3.15.1.22.23.23.38v.2c0 .1-.02.22-.1.3-.06.08-.1.18-.1.3l.03.23c0 .16.1.3.2.4.14.1.22.26.24.42.04.25.05.45.05.65v.23c0 .08 0 .16.03.24.02.07.07.14.13.18l.2.15c.2.13.34.3.42.53.1.22.13.45.13.68v.08c0 .18-.02.37-.08.54a.71.71 0 00.03.5c.08.14.13.3.15.47.04.2.02.4-.05.56l-.02.07c-.05.12-.13.23-.23.32-.1.1-.2.16-.26.23-.06.06-.1.16-.07.25l.03.14c.05.2.05.4 0 .58v.08c-.04.15-.1.28-.16.4-.07.13-.17.23-.3.3l-.15.1a.26.26 0 00-.12.22c0 .1-.04.2-.1.26l-.15.2c-.1.13-.23.24-.37.3-.14.1-.26.2-.35.3-.1.12-.18.26-.22.4-.04.18-.18.28-.33.28h-.54c-.14 0-.27.1-.33.22-.07.16-.14.27-.23.37a.8.8 0 00-.2.36c-.02.12-.12.2-.22.16-.13-.06-.26 0-.32.1-.12.2-.24.35-.37.48l-.07.06c-.13.1-.3.18-.45.18-.18 0-.27.08-.3.2-.03.1-.05.23-.06.34-.02.12-.06.23-.1.33l-.05.06c-.1.15-.18.3-.28.43l-.04.06c-.13.17-.3.3-.5.35a2 2 0 01-.66.1h-.14c-.1 0-.2.06-.27.16l-.06.1-.06.12-.13.22c-.1.18-.25.3-.45.36-.2.05-.43.07-.64.06l-.16-.02c-.14 0-.27-.04-.4-.1-.1-.04-.24 0-.3.1-.1.14-.22.22-.35.26l-.3.1c-.2.05-.42.05-.63 0l-.16-.05c-.1 0-.2-.05-.28-.1a.54.54 0 00-.3-.06l-.13.02c-.2.02-.38 0-.56-.05l-.27-.06a.57.57 0 01-.3-.23.393.393 0 00-.3-.2H9.9c-.2-.03-.38-.1-.5-.25L9 22.5l-.14-.12-.22-.16-.13-.1c-.15-.1-.33-.18-.52-.2l-.6-.1c-.06 0-.1-.02-.16-.03L7 21.74c-.1-.02-.2-.1-.27-.2-.06-.1-.17-.14-.27-.1-.2.08-.36.1-.52.13H5.8c-.26.02-.5-.02-.74-.13-.24-.1-.4-.25-.55-.44-.12-.17-.3-.3-.52-.34l-.28-.06c-.2-.04-.4-.12-.58-.24-.2-.14-.3-.27-.38-.43-.08-.15-.13-.32-.14-.5v-.08a.495.495 0 00-.35-.43c-.23-.07-.4-.17-.55-.3a.71.71 0 01-.22-.52l.02-.44c0-.17-.05-.32-.17-.43a.62.62 0 01-.2-.43l-.03-.36a5.29 5.29 0 00-.13-.78c-.06-.23.03-.46.22-.57l.07-.05c.1-.07.14-.2.08-.32l-.08-.1a.75.75 0 00-.3-.2c-.08-.02-.1-.1-.1-.15l.1-.12c.06-.07.05-.18 0-.24a.455.455 0 01-.13-.28l-.02-.7c0-.14.02-.28.06-.42.04-.12 0-.26-.12-.32zm9.9-1.32c.07-.07.06-.2 0-.25a.973.973 0 01-.23-.27l-.1-.16a1.46 1.46 0 00-.26-.34l-.02-.02a.86.86 0 01-.23-.3c-.05-.1-.05-.2 0-.3l.06-.1c.06-.1.1-.24.1-.36v-.04c0-.1-.04-.2-.1-.3-.04-.08-.08-.18-.1-.28V8.1c-.03-.12 0-.25.08-.35.08-.13.14-.25.17-.4v-.02c.04-.1.02-.23-.04-.33s-.08-.2-.04-.32l.07-.2c.06-.18.15-.34.27-.48l.14-.15.1-.12.06-.06c.06-.06.07-.16.02-.24-.05-.1-.08-.2-.06-.3l.02-.14c.03-.2.1-.4.23-.56l.04-.04c.15-.2.34-.33.56-.4l.27-.1c.12-.04.2-.17.2-.3 0-.16.05-.3.14-.43l.05-.05c.1-.17.22-.34.3-.52l.07-.13c.02-.03.03-.07.03-.1 0-.17-.1-.32-.26-.33L11.76 2c-.25-.02-.5 0-.74 0l-.85.1c-.13 0-.23.1-.24.24 0 .14-.1.26-.22.3l-.36.1-.1.03-.3.1c-.22.07-.4.23-.5.45l-.08.13c-.1.22-.27.4-.48.53-.2.13-.3.34-.32.58v.1c-.02.2-.08.4-.2.54l-.05.08c-.08.1-.1.23-.05.34.05.12.08.25.07.38v.53c0 .14-.1.26-.2.3-.14.05-.23.16-.27.3l-.05.2c-.04.2.03.4.2.52.16.12.26.3.3.52v.18c.03.2.14.4.32.5.18.12.32.3.4.5l.05.16c.08.22.26.35.46.37h.06c.18 0 .34.1.44.26.1.16.26.27.44.3l.28.08c.17.05.33.14.46.27l.02.02c.1.08.26.07.35-.04l.07-.08zm1.14-.92c.1.06.2.03.24-.06l.03-.05c.07-.14.16-.28.26-.4l.2-.3c.03 0 .04-.02.05-.04l.24-.32c.1-.1.22-.17.36-.17.13 0 .24-.07.3-.2.04-.14.1-.27.22-.38l.05-.06c.1-.1.2-.15.3-.2.13-.02.25-.04.37-.04h.3c.12 0 .22-.05.28-.15.06-.1.15-.17.25-.22l.1-.04c.16-.07.34-.12.52-.14l.2-.02c.12 0 .25 0 .37.07.1.07.23.06.33-.02l.07-.04c.15-.1.32-.18.5-.2h.02c.2-.04.38-.04.58-.03h.1c.2.03.37.1.5.25l.03.04c.1.1.26.18.4.18h.17c.05 0 .1-.02.13-.07.03-.03.08-.06.13-.06h.1c.14 0 .27.04.4.08l.17.07c.16.05.33.1.5.12h.12c.08 0 .13-.05.13-.12 0-.1-.02-.2-.07-.28L20.68 7c-.08-.13-.14-.27-.2-.4l-.02-.05c-.05-.1-.05-.2 0-.3V6.2a.17.17 0 00-.1-.2h-.08a.796.796 0 01-.4-.27l-.1-.1c-.1-.1-.16-.25-.2-.4-.05-.13-.16-.23-.3-.23h-.42a.552.552 0 01-.37-.22l-.04-.05c-.07-.1-.13-.22-.17-.34-.05-.1-.16-.16-.26-.13l-.12.04c-.2.07-.4.1-.6.08l-.16-.02c-.17 0-.33-.07-.46-.17l-.1-.07c-.08-.06-.16-.1-.25-.14-.1-.04-.18-.02-.24.05l-.05.06c-.1.1-.24.18-.38.2l-.54.03c-.1 0-.2.05-.27.12-.08.07-.17.12-.27.14h-.02c-.1 0-.2.07-.3.14v.02c-.1.1-.23.15-.36.15l-.04.02c-.12 0-.24 0-.36.03h-.12c-.17.03-.3.17-.34.35l-.04.23a1 1 0 01-.2.43c-.1.12-.22.2-.37.2h-.17c-.1.02-.2.13-.18.25.02.17 0 .32-.03.47l-.04.17c-.04.15-.14.27-.27.32l-.06.03h-.02c-.06.04-.1.13-.05.2.06.1.08.2.07.3l-.03.32c0 .12-.05.23-.1.33-.06.1-.06.2-.02.3l.1.22c.05.1.06.2.03.32-.03.1-.05.2-.04.3 0 .1.06.2.14.24l.02.02zm7.9 7.23c.1.1.25.14.37.06l.2-.13c.1-.07.18-.17.22-.3v-.02l.1-.3.06-.1.04-.1.04-.07c.04-.08.1-.14.2-.17l.04-.02c.08-.02.13-.1.13-.18 0-.1.05-.18.1-.25l.08-.07.2-.26v-.02c.06-.08.1-.17.12-.27.02-.1 0-.2-.04-.3l-.02-.04a.92.92 0 01-.07-.26l-.03-.28-.03-.3c0-.1.04-.2.1-.3a.97.97 0 00.16-.28v-.04l.02-.02c.02-.1-.03-.2-.12-.2-.1-.05-.2-.13-.23-.25l-.03-.06c-.05-.18-.08-.36-.08-.54l.02-.5v-.03a.3.3 0 00-.3-.3h-.02c-.2 0-.36-.06-.5-.2l-.08-.1-.2-.23-.26-.3c-.1-.14-.2-.26-.33-.38-.1-.1-.25-.2-.4-.22l-.2-.03c-.1-.02-.23-.07-.34-.14-.08-.06-.2-.04-.28.04l-.13.14-.06.04c-.07.02-.14-.02-.17-.1a.502.502 0 01.02-.38v-.06c0-.07-.06-.12-.12-.1h-.16c-.18 0-.36-.02-.53-.1l-.1-.04a.764.764 0 00-.33-.08c-.1 0-.2.02-.3.08l-.04.03c-.12.08-.26.12-.4.13h-.33c-.15 0-.3.05-.4.13-.13.08-.27.13-.42.16l-.27.04c-.12.03-.25.08-.36.17-.1.1-.24.16-.37.2l-.05.02a.74.74 0 00-.4.3l-.12.12a.27.27 0 000 .32c.06.1.18.13.3.1l.15-.06c.08-.03.17 0 .24.04.06.05.15.08.24.07l.25-.03c.14 0 .28 0 .42.04.15.05.28.1.4.2s.25.14.4.16c.15.02.3.05.44.1l.1.02c.1.03.18.1.24.2.05.08.1.2.1.3v.03c0 .12.1.2.2.2h.06c.16 0 .33.02.5.07l.07.03c.1.04.2.1.27.2.08.1.13.2.16.3l.03.14c.03.15.04.3.04.46v.05c0 .1.07.2.18.24.1.02.22.06.33.12l.05.02c.13.08.26.18.36.3l.05.07c.13.15.2.34.2.53v.07c0 .15-.03.3-.08.44-.04.12 0 .26.13.3l.07.05c.15.06.28.17.38.3.1.15.14.32.14.5v.3c-.02.1-.05.18-.1.25s-.05.17 0 .24l.06.1zm-6.4-5.12h-.02c-.04 0-.06.05-.05.1l.04.2c.04.16.06.32.08.48.02.16.1.3.22.4h.04c.15.12.24.3.25.48v.5c-.02.1 0 .2.06.28l.05.05c.1.12.14.26.15.4l.03.55c0 .13-.08.24-.2.26l-.1.02c-.07 0-.1.08-.1.15 0 .08.03.17.06.25v.02c.03.1.04.2.03.3l-.04.27c-.04.2-.1.38-.2.56l-.07.12a.43.43 0 01-.2.2c-.1.04-.17.12-.2.22l-.08.36c-.05.2-.14.4-.26.6h-.02c-.12.16-.27.3-.45.4l-.12.08-.3.15c-.1.04-.16.13-.18.24l-.05.33c-.03.2-.1.37-.24.5l-.13.15-.15.15L11 21c-.12.14-.3.2-.5.17l-.36-.07-.33-.04h-.09c-.04.04-.05.1-.02.16.07.12.18.2.3.2l.22.04c.1 0 .22.05.32.1.1.07.2.12.32.15h.02c.13.05.27.06.4.05l.15-.02c.17-.02.33 0 .47.06l.12.04c.05.02.13 0 .18-.05.06-.06.12-.1.2-.13l.08-.02c.13-.04.26-.06.4-.06h.08c.12 0 .23.02.33.08l.04.02c.07.03.15 0 .2-.06.03-.07.1-.14.17-.2l.25-.17.16-.1.08-.05c.1-.07.24-.1.36-.1l.36-.03c.14-.02.26-.12.3-.26.04-.15.1-.3.2-.43s.2-.24.3-.34c.13-.1.26-.15.4-.16h.08c.16-.03.28-.18.27-.34v-.67c.02-.1.06-.23.12-.33l.2-.3.08-.1c.06-.05.1-.12.17-.2l.1-.13a.27.27 0 00-.02-.32c-.1-.1-.15-.24-.17-.38v-.04c-.02-.16-.02-.33.03-.5v-.05c.05-.13.12-.26.2-.38.08-.1.07-.24-.03-.32l-.17-.15a.74.74 0 01-.24-.48l-.02-.2c0-.06 0-.13-.02-.2l-.02-.15a.573.573 0 00-.26-.4l-.07-.02c-.1-.06-.2-.15-.28-.27-.08-.1-.12-.24-.15-.38l-.03-.17c0-.06-.04-.1-.1-.13l-.16-.05-.32-.1c-.1-.02-.2-.1-.27-.17h-.02a.143.143 0 00-.22-.02l-.1.1c-.02.03-.04.04-.07.03-.06 0-.1-.05-.08-.1a.454.454 0 00-.17-.42l-.13-.1-.3-.2c-.08-.03-.2 0-.24.1l-.04.06c0 .02-.03.03-.04.04-.04 0-.1 0-.1-.05l-.03-.05c-.03-.06-.1-.1-.16-.12zm-1.2 1l-.05-.05c-.05-.04-.1-.03-.15.02-.07.12-.13.25-.16.38v.02c-.03.13-.15.22-.27.2h-.12c-.14 0-.25.12-.25.26 0 .18-.06.36-.17.5l-.06.06c-.1.13-.25.22-.4.27l-.08.02c-.1.03-.18.1-.2.22 0 .1-.06.2-.14.28l-.1.08c-.12.13-.3.2-.48.22l-.5.05c-.16 0-.3.1-.4.25-.1.15-.25.25-.4.27l-.22.02c-.16.02-.33.02-.5-.02l-.1-.02-.27-.07c-.1-.03-.18 0-.24.07l-.1.13a.58.58 0 01-.5.2l-.65-.08c-.1 0-.18-.05-.27-.1-.1-.06-.17-.13-.24-.2l-.25-.3c-.03-.02-.08-.03-.13-.02l-.14.06-.56.14c-.1.03-.23 0-.33-.06-.1-.08-.22-.1-.34-.1H3.2c-.12.03-.2.16-.16.28l.04.2c.03.1.02.22-.03.32s-.04.2.03.3l.06.08c.08.12.2.22.3.32.1.1.2.2.28.33l.15.27c.08.14.2.22.36.22.15 0 .3.05.42.15l.3.28c.08.07.2.08.28.02l.05-.02c.06 0 .1.04.1.1v.05c0 .13.1.25.23.3l.45.1c.16.05.32.1.47.2h.08c.08 0 .15-.07.14-.16v-.35c0-.1.04-.2.12-.24l.05-.02c.05.02.1.06.08.1v.17c0 .13.04.25.13.34.1.1.23.12.34.08.12-.05.24-.06.37-.05l.37.02c.18.02.35 0 .5-.07.18-.06.33-.14.47-.25l.06-.04.3-.27c.1-.1.23-.15.35-.15h.4c.2-.02.38-.2.4-.4l.04-.2c0-.13.06-.25.15-.35.1-.1.2-.16.3-.2l.12-.05c.17-.07.3-.22.36-.4l.06-.24c.05-.2.15-.4.3-.53l.02-.02c.12-.1.14-.3.06-.44l-.03-.07a.42.42 0 01-.03-.38c.05-.14.1-.26.18-.38l.1-.14c.04-.08.04-.2-.02-.27a.478.478 0 01-.1-.28l-.02-.14v-.34c.02-.1 0-.23-.03-.33l-.04-.12zm-1.43-.76v-.03c0-.1-.06-.16-.14-.16h-.26c-.1.02-.2.02-.28 0h-.45c-.23 0-.45-.04-.67-.1l-.24-.06-.2-.06-.45-.15a.849.849 0 01-.53-.45l-.05-.1a.337.337 0 00-.37-.2c-.17 0-.34 0-.5-.08l-.12-.05c-.23-.1-.4-.3-.4-.57l-.04-.27c-.03-.14-.12-.27-.24-.32-.14-.06-.27-.14-.4-.23l-.05-.03a1.1 1.1 0 01-.35-.47l-.02-.06a.94.94 0 01-.02-.5l.02-.06c.04-.13.05-.26.05-.4a.47.47 0 00-.14-.33l-.14-.13a.726.726 0 01-.27-.53c-.02-.22-.02-.43.02-.64v-.06a.2.2 0 00-.2-.2H4.2c-.13 0-.24.08-.3.2-.05.14-.13.25-.22.36l-.04.05-.2.2-.1.1c-.1.1-.16.25-.18.4-.02.15-.06.3-.12.44l-.02.05c-.05.12-.13.23-.23.3-.1.08-.17.2-.17.32l-.02.46c0 .2-.03.4-.1.6l-.02.08c-.05.13 0 .27.12.33l.42.18.04.02c.03 0 .04.02.05.05.03.04 0 .1-.03.1l-.1.05c-.06.02-.1.08-.12.15l-.02.1v.02l-.1.56c-.02.08-.02.17-.02.26 0 .08.05.15.12.18l.22.1c.1.06.22.13.3.2l.1.08c.03.04.08.08.12.1l.04.04c.07.06.12.14.14.23l.1.45c0 .12.1.22.2.25l.16.05s.03 0 .05.02l.2.06c.16.05.3.14.42.26.12.1.24.23.34.37l.04.04c.08.1.2.15.32.12s.25-.04.38-.04h.15c.1 0 .23.03.34.1.1.06.23.1.35.15h.03c.12.05.25.03.35-.04.1-.08.23-.12.36-.12l.47.03c.1 0 .2-.02.25-.1h.02l.17-.16.05-.05c.08-.1.2-.14.32-.15h.45c.12 0 .23-.1.28-.2.05-.1.15-.18.27-.2l.2-.04c.08 0 .15-.07.18-.16.03-.1.08-.18.15-.24l.16-.16c.1-.1.15-.2.17-.32z"/></svg><svg viewBox="0 0 192 192" id="discord" xmlns="http://www.w3.org/2000/svg"><path d="M68 138l-8 16c-10.19-4.246-20.742-8.492-31.96-15.8-3.912-2.549-6.284-6.88-6.378-11.548-.488-23.964 5.134-48.056 19.369-73.528 1.863-3.334 4.967-5.778 8.567-7.056C58.186 43.02 64.016 40.664 74 39l6 11s6-2 16-2 16 2 16 2l6-11c9.984 1.664 15.814 4.02 24.402 7.068 3.6 1.278 6.704 3.722 8.567 7.056 14.235 25.472 19.857 49.564 19.37 73.528-.095 4.668-2.467 8.999-6.379 11.548-11.218 7.308-21.769 11.554-31.96 15.8l-8-16m-68-8s20 10 40 10 40-10 40-10"/><ellipse cx="71" cy="101" rx="13" ry="15"/><ellipse cx="121" cy="101" rx="13" ry="15"/></svg><svg viewBox="0 0 24 24" id="gitHub-black" xmlns="http://www.w3.org/2000/svg"><path d="M8.027 18.842c0 .097-.11.174-.251.174-.16.015-.271-.063-.271-.174 0-.097.111-.174.251-.174.146-.015.271.063.271.174zm-1.504-.218c-.034.097.062.208.208.237.125.049.27 0 .3-.096.029-.097-.063-.209-.208-.252-.126-.034-.267.014-.3.111zm2.138-.082c-.14.034-.237.126-.222.237.014.097.14.16.285.126.14-.034.237-.126.223-.223-.015-.092-.145-.155-.286-.14zM11.845 0C5.134 0 0 5.095 0 11.806c0 5.367 3.377 9.959 8.202 11.575.619.11.837-.271.837-.586 0-.3-.015-1.955-.015-2.97 0 0-3.387.725-4.098-1.443 0 0-.552-1.408-1.345-1.77 0 0-1.108-.76.077-.746 0 0 1.205.097 1.868 1.248 1.06 1.868 2.835 1.331 3.527 1.012.112-.774.426-1.312.774-1.63-2.704-.3-5.433-.693-5.433-5.348 0-1.33.367-1.998 1.141-2.85-.125-.314-.537-1.61.126-3.285C6.673 4.698 9 6.319 9 6.319a11.369 11.369 0 013.039-.41c1.03 0 2.07.14 3.038.41 0 0 2.328-1.625 3.34-1.306.662 1.679.25 2.97.125 3.285.774.857 1.248 1.525 1.248 2.85 0 4.67-2.85 5.042-5.554 5.347.445.382.822 1.108.822 2.245 0 1.631-.014 3.649-.014 4.046 0 .314.222.696.837.585C20.719 21.765 24 17.173 24 11.807 24 5.095 18.556 0 11.845 0zM4.703 16.689c-.063.048-.048.16.034.251.078.078.189.112.252.049.063-.049.048-.16-.034-.252-.078-.077-.189-.111-.252-.048zm-.522-.392c-.034.063.014.14.11.188.078.049.175.034.209-.033.034-.063-.015-.14-.111-.19-.097-.028-.174-.014-.208.035zm1.567 1.722c-.077.063-.048.208.063.3.112.112.252.126.315.049.063-.063.034-.208-.063-.3-.107-.112-.252-.126-.315-.049zm-.551-.71c-.078.047-.078.173 0 .284.077.112.208.16.27.112.078-.063.078-.189 0-.3-.067-.111-.193-.16-.27-.097z"/></svg><svg stroke-width="2" stroke-linecap="round" stroke-linejoin="round" viewBox="0 0 24 24" id="github" xmlns="http://www.w3.org/2000/svg"><path d="M9 19c-5 1.5-5-2.5-7-3m14 6v-3.87a3.37 3.37 0 00-.94-2.61c3.14-.35 6.44-1.54 6.44-7A5.44 5.44 0 0020 4.77 5.07 5.07 0 0019.91 1S18.73.65 16 2.48a13.38 13.38 0 00-7 0C6.27.65 5.09 1 5.09 1A5.07 5.07 0 005 4.77a5.44 5.44 0 00-1.5 3.78c0 5.42 3.3 6.61 6.44 7A3.37 3.37 0 009 18.13V22"/></svg><svg viewBox="0 0 502.664 502.664" id="icon" xmlns="http://www.w3.org/2000/svg"><path d="M153.821 358.226L0 274.337v-46.463l153.821-83.414v54.574L46.636 250.523l107.185 53.431v54.272zm26.273 29.358L282.103 115.08h32.227L212.084 387.584h-31.99zm168.749-29.358v-54.272l107.164-52.999-107.164-52.59v-53.927l153.821 83.522v46.183l-153.821 84.083z"/></svg><svg viewBox="0 0 1024 1024" class="ficon" id="left-arrow" xmlns="http://www.w3.org/2000/svg"><path d="M768 903.232L717.568 960 256 512 717.568 64 768 120.768 364.928 512z"/></svg><svg stroke-width="2" stroke-linecap="round" stroke-linejoin="round" viewBox="0 0 24 24" id="mail" xmlns="http://www.w3.org/2000/svg"><path d="M4 4h16c1.1 0 2 .9 2 2v12c0 1.1-.9 2-2 2H4c-1.1 0-2-.9-2-2V6c0-1.1.9-2 2-2z"/><path d="M22 6l-10 7L2 6"/></svg><svg viewBox="0 0 16 16" id="moon" xmlns="http://www.w3.org/2000/svg"><path d="M6 .277a.768.768 0 01.08.858 7.208 7.208 0 00-.878 3.46c0 4.022 3.278 7.278 7.319 7.278.526 0 1.04-.055 1.533-.16a.787.787 0 01.81.316.733.733 0 01-.031.893A8.35 8.35 0 018.344 16C3.734 16 0 12.286 0 7.71 0 4.266 2.114 1.31 5.124.06A.752.752 0 016 .276z"/><path d="M10.794 3.147a.217.217 0 01.412 0l.387 1.163c.173.518.579.924 1.097 1.097l1.162.387a.217.217 0 010 .412l-1.162.387a1.734 1.734 0 00-1.097 1.097l-.387 1.162a.217.217 0 01-.412 0l-.387-1.162A1.734 1.734 0 009.31 6.593l-1.162-.387a.217.217 0 010-.412l1.162-.387a1.734 1.734 0 001.097-1.097l.387-1.163zm3.07-3.049a.144.144 0 01.22-.07.145.145 0 01.053.07l.258.774c.115.346.386.617.732.732l.774.258a.145.145 0 010 .274l-.774.258a1.155 1.155 0 00-.732.732l-.258.774a.145.145 0 01-.274 0l-.258-.774a1.156 1.156 0 00-.732-.732l-.774-.258a.145.145 0 010-.274l.774-.258c.346-.115.617-.386.732-.732L13.863.1z"/></svg><svg viewBox="0 0 32 32" id="phone" xmlns="http://www.w3.org/2000/svg"><path d="M13.6 8.5L9.5 4.3c-.5-.4-1.2-.4-1.7 0L4.7 7.5c-.7.6-.9 1.6-.6 2.4.8 2.3 2.9 6.9 7 11s8.7 6.1 11 7c.9.3 1.8.1 2.5-.5l3.1-3.1c.5-.5.5-1.2 0-1.7l-4.1-4.1c-.5-.5-1.2-.5-1.7 0L19.4 21s-2.8-1.2-5-3.3-3.3-5-3.3-5l2.5-2.5c.5-.5.5-1.3 0-1.7z"/></svg><svg viewBox="0 0 1024 1024" class="jicon" id="right-arrow" xmlns="http://www.w3.org/2000/svg"><path d="M256 120.768L306.432 64 768 512 306.432 960 256 903.232 659.072 512z"/></svg><svg viewBox="0 0 16 16" id="sun" xmlns="http://www.w3.org/2000/svg"><path d="M8 11a3 3 0 110-6 3 3 0 010 6zm0 1a4 4 0 100-8 4 4 0 000 8zM8 0a.5.5 0 01.5.5v2a.5.5 0 11-1 0v-2A.5.5 0 018 0zm0 13a.5.5 0 01.5.5v2a.5.5 0 01-1 0v-2A.5.5 0 018 13zm8-5a.5.5 0 01-.5.5h-2a.5.5 0 010-1h2a.5.5 0 01.5.5zM3 8a.5.5 0 01-.5.5h-2a.5.5 0 010-1h2A.5.5 0 013 8zm10.657-5.657a.5.5 0 010 .707l-1.414 1.415a.5.5 0 01-.707-.708l1.414-1.414a.5.5 0 01.707 0zm-9.193 9.193a.5.5 0 010 .707L3.05 13.657a.5.5 0 01-.707-.707l1.414-1.414a.5.5 0 01.707 0zm9.193 2.121a.5.5 0 01-.707 0l-1.414-1.414a.5.5 0 01.707-.707l1.414 1.414a.5.5 0 010 .707zM4.464 4.465a.5.5 0 01-.707 0L2.343 3.05a.5.5 0 11.707-.707l1.414 1.414a.5.5 0 010 .708z"/></svg><svg viewBox="0 0 24 24" id="telegram" xmlns="http://www.w3.org/2000/svg"><path fill-rule="evenodd" clip-rule="evenodd" d="M5.788 14.02a.746.746 0 00.132.031 456.056 456.056 0 01.844 2.002c.503 1.202 1.01 2.44 1.121 2.796.139.438.285.736.445.94.083.104.178.196.29.266a.88.88 0 00.186.088c.32.12.612.07.795.009a1.313 1.313 0 00.304-.15L9.91 20l2.826-1.762 3.265 2.502c.048.037.1.068.156.093.392.17.772.23 1.13.182.356-.05.639-.199.85-.368a1.992 1.992 0 00.564-.728l.009-.022.003-.008.002-.004v-.002l.001-.001a.756.756 0 00.04-.133l2.98-15.025a.752.752 0 00.014-.146c0-.44-.166-.859-.555-1.112-.334-.217-.705-.227-.94-.209-.252.02-.486.082-.643.132a3.458 3.458 0 00-.26.094l-.011.005-16.714 6.556-.002.001a2.296 2.296 0 00-.167.069 2.522 2.522 0 00-.38.212c-.227.155-.75.581-.661 1.285.07.56.454.905.689 1.071.128.091.25.156.34.199.04.02.126.054.163.07l.01.003 3.169 1.067zm14.138-9.152h-.002a.785.785 0 01-.026.011L3.164 11.444a.818.818 0 01-.026.01l-.01.003a1.126 1.126 0 00-.09.04.851.851 0 00.086.043l3.142 1.058a.75.75 0 01.16.076l10.377-6.075.01-.005a1.59 1.59 0 01.124-.068c.072-.037.187-.091.317-.131.09-.028.357-.107.645-.014a.854.854 0 01.588.689.84.84 0 01.003.424c-.07.275-.262.489-.438.653-.15.14-2.095 2.016-4.014 3.868l-2.613 2.52-.465.45 5.872 4.502a.536.536 0 00.251.04.229.229 0 00.117-.052.495.495 0 00.103-.12l.002-.001 2.89-14.573a1.858 1.858 0 00-.267.086h-.002zm-8.461 12.394l-1.172-.898-.284 1.805 1.456-.907zm-2.247-2.68l1.165-1.125 2.613-2.522.973-.938-6.52 3.817.035.082a339.2 339.2 0 011.22 2.92l.283-1.8a.747.747 0 01.231-.435z"/></svg></svg>